<?xml version="1.0" encoding="UTF-8"?>
<svg xmlns="http://www.w3.org/2000/svg" xmlns:xlink="http://www.w3.org/1999/xlink" width="1122pt" height="1122pt" viewBox="0 0 1122 1122" version="1.1">
<g id="surface1">
<rect x="0" y="0" width="1122" height="1122" style="fill:rgb(100%,100%,100%);fill-opacity:1;stroke:none;"/>
<path style=" stroke:none;fill-rule:nonzero;fill:rgb(44.700623%,44.309998%,43.530273%);fill-opacity:1;" d="M 722.535156 595.195313 L 677.882813 595.195313 L 677.882813 447.535156 C 677.882813 383.089844 625.449219 330.65625 561 330.65625 C 496.550781 330.65625 444.117188 383.089844 444.117188 447.535156 L 444.117188 595.195313 L 399.464844 595.195313 L 399.464844 447.535156 C 399.464844 358.464844 471.929688 286 561 286 C 650.070313 286 722.535156 358.464844 722.535156 447.535156 L 722.535156 595.195313 "/>
<path style=" stroke:none;fill-rule:nonzero;fill:rgb(94.921875%,79.6875%,18.821716%);fill-opacity:1;" d="M 790.894531 818.683594 C 790.894531 828.246094 783.140625 836 773.578125 836 L 348.421875 836 C 338.859375 836 331.105469 828.246094 331.105469 818.683594 L 331.105469 542.441406 C 331.105469 532.878906 338.859375 525.128906 348.421875 525.128906 L 773.578125 525.128906 C 783.140625 525.128906 790.894531 532.878906 790.894531 542.441406 L 790.894531 818.683594 "/>
<path style=" stroke:none;fill-rule:nonzero;fill:rgb(91.796875%,70.896912%,19.213867%);fill-opacity:1;" d="M 790.894531 818.683594 L 790.894531 649.425781 C 650.824219 767.933594 448.863281 812.460938 334.421875 828.800781 C 337.566406 833.144531 342.648438 836 348.421875 836 L 773.578125 836 C 783.140625 836 790.894531 828.246094 790.894531 818.683594 "/>
<path style=" stroke:none;fill-rule:nonzero;fill:rgb(34.521484%,34.910583%,35.301208%);fill-opacity:1;" d="M 598.996094 633.746094 C 598.996094 612.761719 581.984375 595.753906 561 595.753906 C 540.015625 595.753906 523.003906 612.761719 523.003906 633.746094 C 523.003906 646.257813 529.078125 657.320313 538.40625 664.242188 L 526.3125 750.164063 L 595.6875 750.164063 L 583.59375 664.242188 C 592.921875 657.320313 598.996094 646.257813 598.996094 633.746094 "/>
<path style=" stroke:none;fill-rule:nonzero;fill:rgb(96.875%,85.9375%,36.863708%);fill-opacity:1;" d="M 345.601563 557.886719 L 345.601563 617.371094 C 347.175781 592.113281 359.332031 537.144531 435.367188 537.144531 L 366.34375 537.144531 C 354.933594 537.144531 345.601563 546.480469 345.601563 557.886719 "/>
<path style=" stroke:none;fill-rule:nonzero;fill:rgb(24.31488%,23.925781%,25.097656%);fill-opacity:1;" d="M 526.3125 750.164063 C 526.3125 750.164063 577.796875 735.609375 583.59375 664.242188 L 595.6875 750.164063 L 526.3125 750.164063 "/>
</g>
</svg>
