<?xml version="1.0" encoding="UTF-8" standalone="no"?>
<svg
   xmlns:dc="http://purl.org/dc/elements/1.1/"
   xmlns:cc="http://creativecommons.org/ns#"
   xmlns:rdf="http://www.w3.org/1999/02/22-rdf-syntax-ns#"
   xmlns:svg="http://www.w3.org/2000/svg"
   xmlns="http://www.w3.org/2000/svg"
   xmlns:sodipodi="http://sodipodi.sourceforge.net/DTD/sodipodi-0.dtd"
   xmlns:inkscape="http://www.inkscape.org/namespaces/inkscape"
   version="1.1"
   id="svg2"
   xml:space="preserve"
   width="1889.76"
   height="1889.76"
   viewBox="0 0 1889.76 1889.76"
   sodipodi:docname="UNED 50 CM.ai"><metadata
     id="metadata8"><rdf:RDF><cc:Work
         rdf:about=""><dc:format>image/svg+xml</dc:format><dc:type
           rdf:resource="http://purl.org/dc/dcmitype/StillImage" /></cc:Work></rdf:RDF></metadata><defs
     id="defs6"><clipPath
       clipPathUnits="userSpaceOnUse"
       id="clipPath20"><path
         d="M 0,1417.322 H 1417.323 V 0 H 0 Z"
         id="path18" /></clipPath></defs><sodipodi:namedview
     pagecolor="#ffffff"
     bordercolor="#666666"
     borderopacity="1"
     objecttolerance="10"
     gridtolerance="10"
     guidetolerance="10"
     inkscape:pageopacity="0"
     inkscape:pageshadow="2"
     inkscape:window-width="640"
     inkscape:window-height="480"
     id="namedview4" /><g
     id="g10"
     inkscape:groupmode="layer"
     inkscape:label="UNED 50 CM"
     transform="matrix(1.3333333,0,0,-1.3333333,0,1889.76)"><path
       d="M 48.132,1369.402 H 1363.341 V 54.193 H 48.132 Z"
       style="fill:#005440;fill-opacity:1;fill-rule:evenodd;stroke:none"
       id="path12" /><g
       id="g14"><g
         id="g16"
         clip-path="url(#clipPath20)"><g
           id="g22"
           transform="translate(767.8574,795.0859)"><path
             d="m 0,0 c -0.039,29.914 17.669,48.555 27.89,59.219 8.832,9.215 28.381,23.387 49.891,23.387 H 161.85 V 19.344 L 98.075,19.273 c 0,0 -15.21,-1.454 -24.791,-13.056 -9.583,-11.603 -9.99,-22.244 -9.99,-22.244 v -35.076 l 81.851,-0.044 0.108,-63.315 -81.954,0.024 -0.005,-43.685 c 0,0 -0.978,-11.737 5.696,-19.286 4.664,-5.279 9.209,-8.047 16.299,-8.051 l 76.561,-0.037 v -63.204 H 70.563 c -19.745,0.007 -35.514,6.385 -49.561,20.319 C 6.408,-213.907 0,-201.904 0,-178.755 Z m 452.98,-175.205 c -0.431,-76.662 -69.251,-73.501 -88.629,-73.496 H 239.939 V 82.606 h 124.865 c 17.273,0 88.032,1.035 88.176,-76.442 z m -100.939,-10.202 c 42.508,-0.035 37.6,45.658 37.6,45.658 l 0.042,103.126 c 0.01,10.704 4.989,55.938 -37.251,55.935 H 303.238 V -185.407 Z M -184.291,19.312 h 44.96 V -248.701 H -76.04 V 82.606 h -122.44 c -45.791,0 -90.502,-32.261 -90.617,-78.05 v -253.257 h 63.294 l -0.001,214.108 c 0,28.691 8.411,53.931 41.513,53.905 m -284.715,-204.736 -45.469,0.035 0.298,267.995 h -63.262 v -331.307 h 122.943 c 45.475,0 89.818,31.893 89.932,77.383 V 82.606 h -63.295 l -0.026,-214.838 c -0.004,-28.494 -8.247,-53.219 -41.121,-53.192"
             style="fill:#ffffff;fill-opacity:1;fill-rule:evenodd;stroke:none"
             id="path24" /></g></g></g></g></svg>
