<?xml version="1.0" encoding="UTF-8" standalone="no"?>
<svg
   xmlns:dc="http://purl.org/dc/elements/1.1/"
   xmlns:cc="http://creativecommons.org/ns#"
   xmlns:rdf="http://www.w3.org/1999/02/22-rdf-syntax-ns#"
   xmlns:svg="http://www.w3.org/2000/svg"
   xmlns="http://www.w3.org/2000/svg"
   xmlns:sodipodi="http://sodipodi.sourceforge.net/DTD/sodipodi-0.dtd"
   xmlns:inkscape="http://www.inkscape.org/namespaces/inkscape"
   version="1.1"
   id="svg2"
   xml:space="preserve"
   width="666.66669"
   height="666.66669"
   viewBox="0 0 666.66669 666.66669"
   sodipodi:docname="2894245.ai"><metadata
     id="metadata8"><rdf:RDF><cc:Work
         rdf:about=""><dc:format>image/svg+xml</dc:format><dc:type
           rdf:resource="http://purl.org/dc/dcmitype/StillImage" /></cc:Work></rdf:RDF></metadata><defs
     id="defs6"><clipPath
       clipPathUnits="userSpaceOnUse"
       id="clipPath20"><path
         d="M 0,500 H 500 V 0 H 0 Z"
         id="path18" /></clipPath><clipPath
       clipPathUnits="userSpaceOnUse"
       id="clipPath476"><path
         d="M 0,500 H 500 V 0 H 0 Z"
         id="path474" /></clipPath></defs><sodipodi:namedview
     pagecolor="#ffffff"
     bordercolor="#666666"
     borderopacity="1"
     objecttolerance="10"
     gridtolerance="10"
     guidetolerance="10"
     inkscape:pageopacity="0"
     inkscape:pageshadow="2"
     inkscape:window-width="640"
     inkscape:window-height="480"
     id="namedview4" /><g
     id="g10"
     inkscape:groupmode="layer"
     inkscape:label="2894245"
     transform="matrix(1.3333333,0,0,-1.3333333,0,666.66667)"><path
       d="M 0,0 H 500 V 500 H 0 Z"
       style="fill:#ffffff;fill-opacity:1;fill-rule:nonzero;stroke:none"
       id="path12" /><g
       id="g14"><g
         id="g16"
         clip-path="url(#clipPath20)"><g
           id="g22"
           transform="translate(440.5833,297.875)"><path
             d="m 0,0 c 0,3.314 -2.686,6 -6,6 h -136 c -3.314,0 -6,-2.686 -6,-6 V -3.833 H 0 Z"
             style="fill:#99c5e0;fill-opacity:1;fill-rule:nonzero;stroke:none"
             id="path24" /></g><g
           id="g26"
           transform="translate(292.5833,294.0417)"><path
             d="m 0,0 v -143.667 c 0,-3.313 2.686,-6 6,-6 h 136 c 3.314,0 6,2.687 6,6 V 0 Z"
             style="fill:#d5e6f0;fill-opacity:1;fill-rule:nonzero;stroke:none"
             id="path28" /></g><path
           d="m 313.917,180.708 h -12 v -26.333 h 12 z"
           style="fill:#db5667;fill-opacity:1;fill-rule:nonzero;stroke:none"
           id="path30" /><path
           d="m 330.583,194.232 h -12 v -39.857 h 12 z"
           style="fill:#e09e46;fill-opacity:1;fill-rule:nonzero;stroke:none"
           id="path32" /><path
           d="m 347.25,202.171 h -12 v -47.796 h 12 z"
           style="fill:#ebb462;fill-opacity:1;fill-rule:nonzero;stroke:none"
           id="path34" /><path
           d="m 363.917,191.474 h -12 v -37.099 h 12 z"
           style="fill:#ebb462;fill-opacity:1;fill-rule:nonzero;stroke:none"
           id="path36" /><path
           d="m 380.583,199.711 h -12 v -45.336 h 12 z"
           style="fill:#6cced1;fill-opacity:1;fill-rule:nonzero;stroke:none"
           id="path38" /><path
           d="m 397.25,205.311 h -12 v -50.936 h 12 z"
           style="fill:#6cced1;fill-opacity:1;fill-rule:nonzero;stroke:none"
           id="path40" /><path
           d="m 413.917,214.125 h -12 v -59.75 h 12 z"
           style="fill:#188c8c;fill-opacity:1;fill-rule:nonzero;stroke:none"
           id="path42" /><path
           d="m 430.583,219.949 h -12 v -65.574 h 12 z"
           style="fill:#188c8c;fill-opacity:1;fill-rule:nonzero;stroke:none"
           id="path44" /><g
           id="g46"
           transform="translate(430.5833,216.375)"><path
             d="m 0,0 -9.952,-0.624 2.201,-3.314 C -24.01,-14.3 -44.615,-24.8 -60.67,-30.873 c -5.798,-2.193 -12.5,-4.378 -18.66,-2.525 -2.394,0.722 -4.554,2.002 -6.841,3.356 -2.599,1.539 -5.286,3.132 -8.34,3.818 -8.112,1.824 -15.867,-3.215 -20.942,-7.765 -1.511,-1.355 -2.988,-2.802 -4.417,-4.201 -3.778,-3.701 -7.685,-7.527 -12.419,-9.801 l 0.865,-1.803 c 5.033,2.417 9.059,6.36 12.953,10.175 1.413,1.384 2.874,2.815 4.354,4.142 4.724,4.233 11.887,8.94 19.167,7.302 2.746,-0.617 5.182,-2.06 7.761,-3.588 2.289,-1.356 4.656,-2.757 7.283,-3.55 6.757,-2.031 13.839,0.26 19.943,2.569 16.184,6.122 36.948,16.704 53.318,27.141 l 2.211,-3.328 z"
             style="fill:#4799c9;fill-opacity:1;fill-rule:nonzero;stroke:none"
             id="path48" /></g><path
           d="m 403.552,220.872 h -98.969 v 5.836 h 98.969 z"
           style="fill:#4799c9;fill-opacity:1;fill-rule:nonzero;stroke:none"
           id="path50" /><path
           d="m 364.761,211.207 h -60.178 v 5.836 h 60.178 z"
           style="fill:#99c5e0;fill-opacity:1;fill-rule:nonzero;stroke:none"
           id="path52" /><g
           id="g54"
           transform="translate(264.2201,429.375)"><path
             d="m 0,0 c 0,3.314 -2.686,6 -6,6 h -157.5 c -3.314,0 -6,-2.686 -6,-6 V -9.333 H 0 Z"
             style="fill:#99c5e0;fill-opacity:1;fill-rule:nonzero;stroke:none"
             id="path56" /></g><g
           id="g58"
           transform="translate(94.7201,420.0417)"><path
             d="m 0,0 v -136.167 c 0,-3.313 2.686,-6 6,-6 h 157.5 c 3.314,0 6,2.687 6,6 V 0 Z"
             style="fill:#d5e6f0;fill-opacity:1;fill-rule:nonzero;stroke:none"
             id="path60" /></g><g
           id="g62"
           transform="translate(107.0535,427.625)"><path
             d="m 0,0 c 0,-2.255 -1.828,-4.083 -4.083,-4.083 -2.256,0 -4.084,1.828 -4.084,4.083 0,2.255 1.828,4.083 4.084,4.083 C -1.828,4.083 0,2.255 0,0"
             style="fill:#db5667;fill-opacity:1;fill-rule:nonzero;stroke:none"
             id="path64" /></g><g
           id="g66"
           transform="translate(119.7201,427.625)"><path
             d="m 0,0 c 0,-2.255 -1.828,-4.083 -4.083,-4.083 -2.256,0 -4.084,1.828 -4.084,4.083 0,2.255 1.828,4.083 4.084,4.083 C -1.828,4.083 0,2.255 0,0"
             style="fill:#ebb462;fill-opacity:1;fill-rule:nonzero;stroke:none"
             id="path68" /></g><g
           id="g70"
           transform="translate(132.3868,427.625)"><path
             d="m 0,0 c 0,-2.255 -1.828,-4.083 -4.083,-4.083 -2.256,0 -4.084,1.828 -4.084,4.083 0,2.255 1.828,4.083 4.084,4.083 C -1.828,4.083 0,2.255 0,0"
             style="fill:#188c8c;fill-opacity:1;fill-rule:nonzero;stroke:none"
             id="path72" /></g><path
           d="m 165.637,402.875 h -54.083 v 5 h 54.083 z"
           style="fill:#4799c9;fill-opacity:1;fill-rule:nonzero;stroke:none"
           id="path74" /><path
           d="m 165.637,394.125 h -54.083 v 5 h 54.083 z"
           style="fill:#94c6df;fill-opacity:1;fill-rule:nonzero;stroke:none"
           id="path76" /><path
           d="m 142.803,385.375 h -31.25 v 5 h 31.25 z"
           style="fill:#94c6df;fill-opacity:1;fill-rule:nonzero;stroke:none"
           id="path78" /><path
           d="m 231.637,367.042 h -54.083 v 5 h 54.083 z"
           style="fill:#4799c9;fill-opacity:1;fill-rule:nonzero;stroke:none"
           id="path80" /><path
           d="m 231.637,358.292 h -54.083 v 5 h 54.083 z"
           style="fill:#4799c9;fill-opacity:1;fill-rule:nonzero;stroke:none"
           id="path82" /><path
           d="m 208.803,349.542 h -31.25 v 5 h 31.25 z"
           style="fill:#4799c9;fill-opacity:1;fill-rule:nonzero;stroke:none"
           id="path84" /><g
           id="g86"
           transform="translate(247.705,385.375)"><path
             d="m 0,0 h -63.47 c -2.631,0 -4.765,2.133 -4.765,4.765 v 12.97 c 0,2.632 2.134,4.765 4.765,4.765 H 0 c 2.632,0 4.765,-2.133 4.765,-4.765 V 4.765 C 4.765,2.133 2.632,0 0,0"
             style="fill:#99c5e0;fill-opacity:1;fill-rule:nonzero;stroke:none"
             id="path88" /></g><path
           d="m 154.648,317.333 h -43.095 v 43.095 h 43.095 z"
           style="fill:#ffffff;fill-opacity:1;fill-rule:nonzero;stroke:none"
           id="path90" /><g
           id="g92"
           transform="translate(133.9642,351.8125)"><path
             d="m 0,0 c 2.558,0 4.631,-2.073 4.631,-4.631 0,-2.558 -2.073,-4.631 -4.631,-4.631 -2.558,0 -4.631,2.073 -4.631,4.631 C -4.631,-2.073 -2.558,0 0,0 M 2.123,-18.957 15.684,-5.396 V 3.616 H -17.411 V -20.87 l 10.724,10.724 z"
             style="fill:#97c5df;fill-opacity:1;fill-rule:nonzero;stroke:none"
             id="path94" /></g><g
           id="g96"
           transform="translate(136.0877,332.8556)"><path
             d="M 0,0 -8.811,8.811 -19.534,-1.913 v -8.609 h 33.095 v 24.083 z"
             style="fill:#1f5078;fill-opacity:1;fill-rule:nonzero;stroke:none"
             id="path98" /></g><g
           id="g100"
           transform="translate(133.9642,342.5507)"><path
             d="M 0,0 C 2.558,0 4.631,2.073 4.631,4.631 4.631,7.188 2.558,9.262 0,9.262 -2.558,9.262 -4.631,7.188 -4.631,4.631 -4.631,2.073 -2.558,0 0,0"
             style="fill:#ffffff;fill-opacity:1;fill-rule:nonzero;stroke:none"
             id="path102" /></g><g
           id="g104"
           transform="translate(161.6926,358.3991)"><path
             d="M 0,0 -10.299,9.389 -20.597,0 h 4.236 V -9.378 H -4.236 V 0 Z"
             style="fill:#1f5078;fill-opacity:1;fill-rule:nonzero;stroke:none"
             id="path106" /></g><g
           id="g108"
           transform="translate(303.9167,313.0417)"><path
             d="m 0,0 h 124.667 c 3.313,0 6,2.686 6,6 v 55.333 c 0,3.314 -2.687,6 -6,6 H 0 c -3.314,0 -6,-2.686 -6,-6 V 6 C -6,2.686 -3.314,0 0,0"
             style="fill:#d5e6f0;fill-opacity:1;fill-rule:nonzero;stroke:none"
             id="path110" /></g><path
           d="m 309.423,364.215 h 68 v 4.047 h -68 z"
           style="fill:#4799c9;fill-opacity:1;fill-rule:nonzero;stroke:none"
           id="path112" /><path
           d="m 349.93,356.381 h 27.493 v 4.047 H 349.93 Z"
           style="fill:#4799c9;fill-opacity:1;fill-rule:nonzero;stroke:none"
           id="path114" /><path
           d="m 309.423,348.548 h 68 v 4.047 h -68 z"
           style="fill:#1f5078;fill-opacity:1;fill-rule:nonzero;stroke:none"
           id="path116" /><path
           d="m 337.911,340.715 h 39.512 v 4.047 h -39.512 z"
           style="fill:#1f5078;fill-opacity:1;fill-rule:nonzero;stroke:none"
           id="path118" /><path
           d="m 356.458,332.881 h 20.966 v 4.047 h -20.966 z"
           style="fill:#99c5e0;fill-opacity:1;fill-rule:nonzero;stroke:none"
           id="path120" /><path
           d="m 309.423,325.048 h 68 v 4.047 h -68 z"
           style="fill:#99c5e0;fill-opacity:1;fill-rule:nonzero;stroke:none"
           id="path122" /><g
           id="g124"
           transform="translate(426.3195,349.4182)"><path
             d="m 0,0 h -40.904 c -1.185,2.984 -0.421,6.891 1.694,9.307 2.114,2.416 5.623,3.513 8.737,2.734 -0.336,4.401 2.129,8.603 6.16,10.403 4.03,1.8 9.053,0.965 12.406,-1.905 3.354,-2.871 4.955,-7.588 4.226,-11.941 2.178,0.174 4.306,-0.719 5.842,-2.274 C -0.303,4.769 0.201,2.176 0,0"
             style="fill:#ffffff;fill-opacity:1;fill-rule:nonzero;stroke:none"
             id="path126" /></g><g
           id="g128"
           transform="translate(415.929,356.5782)"><path
             d="M 0,0 -9.406,8.576 -18.813,0 h 3.869 V -8.997 H -3.869 V 0 Z"
             style="fill:#1f5078;fill-opacity:1;fill-rule:nonzero;stroke:none"
             id="path130" /></g><path
           d="m 418.116,322.546 h -23.187 v 23.187 h 23.187 z"
           style="fill:#ffffff;fill-opacity:1;fill-rule:nonzero;stroke:none"
           id="path132" /><g
           id="g134"
           transform="translate(406.9871,341.0969)"><path
             d="m 0,0 c 1.376,0 2.492,-1.116 2.492,-2.492 0,-1.376 -1.116,-2.491 -2.492,-2.491 -1.376,0 -2.492,1.115 -2.492,2.491 C -2.492,-1.116 -1.376,0 0,0 m 1.143,-10.2 7.296,7.297 V 1.945 H -9.368 v -13.174 l 5.77,5.77 z"
             style="fill:#97c5df;fill-opacity:1;fill-rule:nonzero;stroke:none"
             id="path136" /></g><g
           id="g138"
           transform="translate(408.1297,330.8972)"><path
             d="m 0,0 -4.741,4.741 -5.769,-5.77 V -5.661 H 7.296 V 7.296 Z"
             style="fill:#1f5078;fill-opacity:1;fill-rule:nonzero;stroke:none"
             id="path140" /></g><g
           id="g142"
           transform="translate(406.9871,336.1136)"><path
             d="M 0,0 C 1.376,0 2.492,1.116 2.492,2.492 2.492,3.868 1.376,4.983 0,4.983 -1.376,4.983 -2.492,3.868 -2.492,2.492 -2.492,1.116 -1.376,0 0,0"
             style="fill:#ffffff;fill-opacity:1;fill-rule:nonzero;stroke:none"
             id="path144" /></g><g
           id="g146"
           transform="translate(49.0833,296.0417)"><path
             d="m 0,0 v -154.667 c 0,-3.313 2.686,-6 6,-6 h 144.991 c 3.314,0 6,2.687 6,6 V 0 Z"
             style="fill:#d5e6f0;fill-opacity:1;fill-rule:nonzero;stroke:none"
             id="path148" /></g><path
           d="m 60.083,271.375 h 134.991 v -98 H 60.083 Z"
           style="fill:#97c5df;fill-opacity:1;fill-rule:nonzero;stroke:none"
           id="path150" /><g
           id="g152"
           transform="translate(206.0746,301.375)"><path
             d="m 0,0 c 0,3.314 -2.686,6 -6,6 h -144.991 c -3.314,0 -6,-2.686 -6,-6 V -5.333 H 0 Z"
             style="fill:#99c5e0;fill-opacity:1;fill-rule:nonzero;stroke:none"
             id="path154" /></g><g
           id="g156"
           transform="translate(68.4167,282.6368)"><path
             d="m 0,0 c 2.857,0 5.353,-1.519 6.743,-3.789 0.996,1.373 1.59,3.056 1.59,4.882 0,4.603 -3.731,8.334 -8.333,8.334 -4.602,0 -8.333,-3.731 -8.333,-8.334 0,-1.826 0.594,-3.509 1.59,-4.882 C -5.353,-1.519 -2.857,0 0,0"
             style="fill:#98c6e0;fill-opacity:1;fill-rule:nonzero;stroke:none"
             id="path158" /></g><g
           id="g160"
           transform="translate(68.4167,275.3967)"><path
             d="M 0,0 C 2.777,0 5.229,1.363 6.743,3.451 5.353,5.721 2.857,7.24 0,7.24 -2.857,7.24 -5.353,5.721 -6.743,3.451 -5.229,1.363 -2.777,0 0,0"
             style="fill:#1f5078;fill-opacity:1;fill-rule:nonzero;stroke:none"
             id="path162" /></g><g
           id="g164"
           transform="translate(71.8854,286.7187)"><path
             d="m 0,0 c 0,-1.916 -1.553,-3.469 -3.469,-3.469 -1.916,0 -3.468,1.553 -3.468,3.469 0,1.916 1.552,3.469 3.468,3.469 C -1.553,3.469 0,1.916 0,0"
             style="fill:#1f5078;fill-opacity:1;fill-rule:nonzero;stroke:none"
             id="path166" /></g><g
           id="g168"
           transform="translate(68.4167,150.1639)"><path
             d="m 0,0 c 2.857,0 5.353,-1.519 6.743,-3.789 0.996,1.373 1.59,3.056 1.59,4.882 0,4.603 -3.731,8.334 -8.333,8.334 -4.602,0 -8.333,-3.731 -8.333,-8.334 0,-1.826 0.594,-3.509 1.59,-4.882 C -5.353,-1.519 -2.857,0 0,0"
             style="fill:#98c6e0;fill-opacity:1;fill-rule:nonzero;stroke:none"
             id="path170" /></g><g
           id="g172"
           transform="translate(68.4167,142.9238)"><path
             d="M 0,0 C 2.777,0 5.229,1.363 6.743,3.451 5.353,5.721 2.857,7.24 0,7.24 -2.857,7.24 -5.353,5.721 -6.743,3.451 -5.229,1.363 -2.777,0 0,0"
             style="fill:#1f5078;fill-opacity:1;fill-rule:nonzero;stroke:none"
             id="path174" /></g><g
           id="g176"
           transform="translate(71.8854,154.2458)"><path
             d="m 0,0 c 0,-1.916 -1.553,-3.469 -3.469,-3.469 -1.916,0 -3.468,1.553 -3.468,3.469 0,1.916 1.552,3.469 3.468,3.469 C -1.553,3.469 0,1.916 0,0"
             style="fill:#1f5078;fill-opacity:1;fill-rule:nonzero;stroke:none"
             id="path178" /></g><path
           d="M 141.095,283.553 H 84.417 v 8.511 h 56.678 z"
           style="fill:#4799c9;fill-opacity:1;fill-rule:nonzero;stroke:none"
           id="path180" /><path
           d="M 122.75,275.544 H 84.417 v 5.536 h 38.333 z"
           style="fill:#94c6df;fill-opacity:1;fill-rule:nonzero;stroke:none"
           id="path182" /><g
           id="g184"
           transform="translate(106.5833,235.375)"><path
             d="m 0,0 c 0,-9.665 -7.835,-17.5 -17.5,-17.5 -9.665,0 -17.5,7.835 -17.5,17.5 0,9.665 7.835,17.5 17.5,17.5 C -7.835,17.5 0,9.665 0,0"
             style="fill:#ffffff;fill-opacity:1;fill-rule:nonzero;stroke:none"
             id="path186" /></g><g
           id="g188"
           transform="translate(134.624,245.5417)"><path
             d="m 0,0 h -41.374 c 0.609,3.917 4.371,7.396 8.265,8.143 3.893,0.747 8.158,-1.178 10.173,-4.591 0.787,1.377 2.449,2.198 4.021,1.986 1.571,-0.211 2.957,-1.442 3.352,-2.978 C -10.761,3.928 -4.208,2.69 0,0"
             style="fill:#d5e6f0;fill-opacity:1;fill-rule:nonzero;stroke:none"
             id="path190" /></g><g
           id="g192"
           transform="translate(89.5111,257.5)"><path
             d="m 0,0 h -27.838 c 0.881,1.384 2.311,2.601 3.919,2.927 1.607,0.326 3.342,-0.028 4.692,-0.959 2.252,3.022 6.1,4.778 9.859,4.5 C -5.61,6.189 -1.782,3.321 0,0"
             style="fill:#d5e6f0;fill-opacity:1;fill-rule:nonzero;stroke:none"
             id="path194" /></g><g
           id="g196"
           transform="translate(144.0836,262.625)"><path
             d="m 0,0 h -26.375 c 1.12,2.141 4.023,2.777 6.067,1.488 1.315,2.257 3.877,3.731 6.489,3.733 2.612,0.001 5.176,-1.471 6.493,-3.727 C -5.17,2.874 -1.749,1.868 0,0"
             style="fill:#d5e6f0;fill-opacity:1;fill-rule:nonzero;stroke:none"
             id="path198" /></g><g
           id="g200"
           transform="translate(82.0655,217.875)"><path
             d="M 0,0 H 35.643 C 35.227,1.563 33.487,3.048 31.072,3.444 28.657,3.84 25.915,3.257 24.361,2.017 24.372,3.325 22.735,4.561 20.704,4.777 18.674,4.993 16.493,4.164 15.832,2.925 14.23,5.025 10.173,6.234 6.608,5.673 3.043,5.111 -0.126,2.333 0,0"
             style="fill:#d5e6f0;fill-opacity:1;fill-rule:nonzero;stroke:none"
             id="path202" /></g><g
           id="g204"
           transform="translate(157.8333,244.875)"><path
             d="m 0,0 -39.5,-44.25 -26.25,33 -32,-29.892 V -71.5 H 37.241 v 31.192 z"
             style="fill:#1f5078;fill-opacity:1;fill-rule:nonzero;stroke:none"
             id="path206" /></g><g
           id="g208"
           transform="translate(126.2051,228.8784)"><path
             d="M 0,0 H 27.838 C 26.957,1.384 25.527,2.601 23.919,2.927 22.312,3.253 20.577,2.899 19.227,1.968 16.975,4.99 13.127,6.746 9.368,6.468 5.61,6.189 1.782,3.321 0,0"
             style="fill:#d5e6f0;fill-opacity:1;fill-rule:nonzero;stroke:none"
             id="path210" /></g><path
           d="m 119.083,164.875 h -59 v 5.167 h 59 z"
           style="fill:#4799c9;fill-opacity:1;fill-rule:nonzero;stroke:none"
           id="path212" /><path
           d="m 163.583,155.375 h -80 v 4.215 h 80 z"
           style="fill:#94c6df;fill-opacity:1;fill-rule:nonzero;stroke:none"
           id="path214" /><path
           d="m 163.583,148.056 h -80 v 4.215 h 80 z"
           style="fill:#94c6df;fill-opacity:1;fill-rule:nonzero;stroke:none"
           id="path216" /><path
           d="M 126.179,140.737 H 83.583 v 4.216 h 42.596 z"
           style="fill:#94c6df;fill-opacity:1;fill-rule:nonzero;stroke:none"
           id="path218" /><g
           id="g220"
           transform="translate(198.019,172.0601)"><path
             d="m 0,0 v 226.791 c 0,12.75 10.336,23.086 23.087,23.086 h 94.41 c 12.75,0 23.086,-10.336 23.086,-23.086 V 0 c 0,-12.75 -10.336,-23.086 -23.086,-23.086 H 23.086 C 10.336,-23.086 0,-12.75 0,0"
             style="fill:#1f5078;fill-opacity:1;fill-rule:nonzero;stroke:none"
             id="path222" /></g><g
           id="g224"
           transform="translate(198.019,375.9011)"><path
             d="m 0,0 v 0 13.03 c -0.912,0 -1.651,-0.739 -1.651,-1.651 V 1.651 C -1.651,0.739 -0.912,0 0,0"
             style="fill:#222b54;fill-opacity:1;fill-rule:nonzero;stroke:none"
             id="path226" /></g><g
           id="g228"
           transform="translate(198.019,341.5682)"><path
             d="m 0,0 v 0 24.65 c -0.912,0 -1.651,-0.739 -1.651,-1.651 V 1.651 C -1.651,0.739 -0.912,0 0,0"
             style="fill:#222b54;fill-opacity:1;fill-rule:nonzero;stroke:none"
             id="path230" /></g><g
           id="g232"
           transform="translate(338.6023,335.0178)"><path
             d="M 0,0 V 0 C 0.912,0 1.651,0.739 1.651,1.651 V 36.1 c 0,0.912 -0.739,1.651 -1.651,1.651 z"
             style="fill:#222b54;fill-opacity:1;fill-rule:nonzero;stroke:none"
             id="path234" /></g><g
           id="g236"
           transform="translate(198.019,313.0492)"><path
             d="m 0,0 v 0 24.65 c -0.912,0 -1.651,-0.739 -1.651,-1.651 V 1.651 C -1.651,0.739 -0.912,0 0,0"
             style="fill:#222b54;fill-opacity:1;fill-rule:nonzero;stroke:none"
             id="path238" /></g><g
           id="g240"
           transform="translate(274.1871,408.6685)"><path
             d="m 0,0 h -21.27 c -1.217,0 -2.204,0.987 -2.204,2.204 0,1.217 0.987,2.203 2.204,2.203 H 0 C 1.217,4.407 2.204,3.421 2.204,2.204 2.204,0.987 1.217,0 0,0"
             style="fill:#222b54;fill-opacity:1;fill-rule:nonzero;stroke:none"
             id="path242" /></g><g
           id="g244"
           transform="translate(285.9079,410.8402)"><path
             d="m 0,0 c 0,-1.235 -1.001,-2.236 -2.236,-2.236 -1.234,0 -2.235,1.001 -2.235,2.236 0,1.235 1.001,2.236 2.235,2.236 C -1.001,2.236 0,1.235 0,0"
             style="fill:#222b54;fill-opacity:1;fill-rule:nonzero;stroke:none"
             id="path246" /></g><g
           id="g248"
           transform="translate(321.2097,415.0391)"><path
             d="m 0,0 h -11.682 c -1.83,0 -3.504,-1.072 -4.325,-2.771 l -4.056,-8.392 c -1.248,-2.583 -3.794,-4.214 -6.577,-4.214 h -52.518 c -2.783,0 -5.329,1.631 -6.577,4.214 l -4.056,8.392 C -90.612,-1.072 -92.286,0 -94.116,0 h -11.682 c -5.937,0 -10.75,-4.998 -10.75,-11.163 v -236.842 c 0,-6.164 4.813,-11.162 10.75,-11.162 H 0 c 5.937,0 10.75,4.998 10.75,11.163 V -11.163 C 10.75,-4.998 5.937,0 0,0"
             style="fill:#e1ecf2;fill-opacity:1;fill-rule:nonzero;stroke:none"
             id="path250" /></g><g
           id="g252"
           transform="translate(232.7775,369.8017)"><path
             d="m 0,0 c 5.595,0 10.484,-2.976 13.208,-7.421 1.95,2.689 3.114,5.986 3.114,9.562 0,9.015 -7.308,16.322 -16.322,16.322 -9.014,0 -16.322,-7.307 -16.322,-16.322 0,-3.576 1.164,-6.873 3.114,-9.562 C -10.483,-2.976 -5.595,0 0,0"
             style="fill:#98c6e0;fill-opacity:1;fill-rule:nonzero;stroke:none"
             id="path254" /></g><g
           id="g256"
           transform="translate(232.7775,355.6214)"><path
             d="M 0,0 C 5.438,0 10.242,2.67 13.208,6.759 10.484,11.205 5.595,14.18 0,14.18 -5.595,14.18 -10.483,11.205 -13.208,6.759 -10.242,2.67 -5.438,0 0,0"
             style="fill:#1f5078;fill-opacity:1;fill-rule:nonzero;stroke:none"
             id="path258" /></g><g
           id="g260"
           transform="translate(239.5714,377.7966)"><path
             d="m 0,0 c 0,-3.752 -3.042,-6.794 -6.794,-6.794 -3.752,0 -6.794,3.042 -6.794,6.794 0,3.752 3.042,6.794 6.794,6.794 C -3.042,6.794 0,3.752 0,0"
             style="fill:#1f5078;fill-opacity:1;fill-rule:nonzero;stroke:none"
             id="path262" /></g><g
           id="g264"
           transform="translate(273.832,344.8189)"><path
             d="m 0,0 h -53.879 c -1.932,0 -3.497,1.566 -3.497,3.497 0,1.931 1.565,3.497 3.497,3.497 H 0 C 1.931,6.994 3.497,5.428 3.497,3.497 3.497,1.566 1.931,0 0,0"
             style="fill:#4799c9;fill-opacity:1;fill-rule:nonzero;stroke:none"
             id="path266" /></g><path
           d="m 259.079,337.901 h -42.623 v 3.055 h 42.623 z"
           style="fill:#94c6df;fill-opacity:1;fill-rule:nonzero;stroke:none"
           id="path268" /><path
           d="m 243.223,333.435 h -26.767 v 3.055 h 26.767 z"
           style="fill:#94c6df;fill-opacity:1;fill-rule:nonzero;stroke:none"
           id="path270" /><g
           id="g272"
           transform="translate(260.0514,274.7469)"><path
             d="m 0,0 h -38.596 c -2.761,0 -4.999,2.239 -4.999,5 v 38.596 c 0,2.761 2.238,5 4.999,5 H 0 c 2.761,0 5,-2.239 5,-5 V 5 C 5,2.239 2.761,0 0,0"
             style="fill:#4799c9;fill-opacity:1;fill-rule:nonzero;stroke:none"
             id="path274" /></g><g
           id="g276"
           transform="translate(315.3288,274.7469)"><path
             d="m 0,0 h -38.595 c -2.762,0 -5,2.239 -5,5 v 38.596 c 0,2.761 2.238,5 5,5 H 0 c 2.761,0 5,-2.239 5,-5 V 5 C 5,2.239 2.761,0 0,0"
             style="fill:#4799c9;fill-opacity:1;fill-rule:nonzero;stroke:none"
             id="path278" /></g><g
           id="g280"
           transform="translate(250.6528,296.6024)"><path
             d="M 0,0 V -5.22 H -20.096 V 0 h -4.682 v -5.22 -2.931 c 0,-0.967 0.784,-1.751 1.75,-1.751 h 25.96 c 0.967,0 1.75,0.784 1.75,1.751 V -5.22 0 Z"
             style="fill:#e1ecf2;fill-opacity:1;fill-rule:nonzero;stroke:none"
             id="path282" /></g><g
           id="g284"
           transform="translate(251.0524,303.875)"><path
             d="M 0,0 -10.299,9.389 -20.597,0 h 4.236 V -9.378 H -4.236 V 0 Z"
             style="fill:#e1ecf2;fill-opacity:1;fill-rule:nonzero;stroke:none"
             id="path286" /></g><g
           id="g288"
           transform="translate(306.0788,296.6024)"><path
             d="M 0,0 V -5.22 H -20.096 V 0 h -4.682 v -5.22 -2.931 c 0,-0.967 0.784,-1.751 1.751,-1.751 H 2.932 c 0.967,0 1.75,0.784 1.75,1.751 V -5.22 0 Z"
             style="fill:#e1ecf2;fill-opacity:1;fill-rule:nonzero;stroke:none"
             id="path290" /></g><g
           id="g292"
           transform="translate(306.4785,303.875)"><path
             d="M 0,0 -10.299,9.389 -20.597,0 h 4.236 V -9.378 H -4.236 V 0 Z"
             style="fill:#e1ecf2;fill-opacity:1;fill-rule:nonzero;stroke:none"
             id="path294" /></g><g
           id="g296"
           transform="translate(260.0514,218.7439)"><path
             d="m 0,0 h -38.596 c -2.761,0 -4.999,2.239 -4.999,5 v 38.595 c 0,2.762 2.238,5 4.999,5 H 0 c 2.761,0 5,-2.238 5,-5 V 5 C 5,2.239 2.761,0 0,0"
             style="fill:#4799c9;fill-opacity:1;fill-rule:nonzero;stroke:none"
             id="path298" /></g><g
           id="g300"
           transform="translate(315.3288,218.7439)"><path
             d="m 0,0 h -38.595 c -2.762,0 -5,2.239 -5,5 v 38.595 c 0,2.762 2.238,5 5,5 H 0 c 2.761,0 5,-2.238 5,-5 V 5 C 5,2.239 2.761,0 0,0"
             style="fill:#4799c9;fill-opacity:1;fill-rule:nonzero;stroke:none"
             id="path302" /></g><g
           id="g304"
           transform="translate(250.6528,240.5994)"><path
             d="M 0,0 V -5.22 H -20.096 V 0 h -4.682 v -5.22 -2.931 c 0,-0.967 0.784,-1.751 1.75,-1.751 h 25.96 c 0.967,0 1.75,0.784 1.75,1.751 V -5.22 0 Z"
             style="fill:#e1ecf2;fill-opacity:1;fill-rule:nonzero;stroke:none"
             id="path306" /></g><g
           id="g308"
           transform="translate(251.0524,247.872)"><path
             d="M 0,0 -10.299,9.389 -20.597,0 h 4.236 V -9.378 H -4.236 V 0 Z"
             style="fill:#e1ecf2;fill-opacity:1;fill-rule:nonzero;stroke:none"
             id="path310" /></g><g
           id="g312"
           transform="translate(306.0788,240.5994)"><path
             d="M 0,0 V -5.22 H -20.096 V 0 h -4.682 v -5.22 -2.931 c 0,-0.967 0.784,-1.751 1.751,-1.751 H 2.932 c 0.967,0 1.75,0.784 1.75,1.751 V -5.22 0 Z"
             style="fill:#e1ecf2;fill-opacity:1;fill-rule:nonzero;stroke:none"
             id="path314" /></g><g
           id="g316"
           transform="translate(306.4785,247.872)"><path
             d="M 0,0 -10.299,9.389 -20.597,0 h 4.236 V -9.378 H -4.236 V 0 Z"
             style="fill:#e1ecf2;fill-opacity:1;fill-rule:nonzero;stroke:none"
             id="path318" /></g><g
           id="g320"
           transform="translate(260.0514,162.7409)"><path
             d="m 0,0 h -38.596 c -2.761,0 -4.999,2.239 -4.999,5 v 38.595 c 0,2.762 2.238,5 4.999,5 H 0 c 2.761,0 5,-2.238 5,-5 V 5 C 5,2.239 2.761,0 0,0"
             style="fill:#4799c9;fill-opacity:1;fill-rule:nonzero;stroke:none"
             id="path322" /></g><g
           id="g324"
           transform="translate(315.3288,162.7409)"><path
             d="m 0,0 h -38.595 c -2.762,0 -5,2.239 -5,5 v 38.595 c 0,2.762 2.238,5 5,5 H 0 c 2.761,0 5,-2.238 5,-5 V 5 C 5,2.239 2.761,0 0,0"
             style="fill:#4799c9;fill-opacity:1;fill-rule:nonzero;stroke:none"
             id="path326" /></g><g
           id="g328"
           transform="translate(250.6528,184.5964)"><path
             d="M 0,0 V -5.22 H -20.096 V 0 h -4.682 v -5.22 -2.932 c 0,-0.966 0.784,-1.75 1.75,-1.75 h 25.96 c 0.967,0 1.75,0.784 1.75,1.75 V -5.22 0 Z"
             style="fill:#e1ecf2;fill-opacity:1;fill-rule:nonzero;stroke:none"
             id="path330" /></g><g
           id="g332"
           transform="translate(251.0524,191.869)"><path
             d="M 0,0 -10.299,9.389 -20.597,0 h 4.236 V -9.378 H -4.236 V 0 Z"
             style="fill:#e1ecf2;fill-opacity:1;fill-rule:nonzero;stroke:none"
             id="path334" /></g><g
           id="g336"
           transform="translate(306.0788,184.5964)"><path
             d="M 0,0 V -5.22 H -20.096 V 0 h -4.682 v -5.22 -2.932 c 0,-0.966 0.784,-1.75 1.751,-1.75 H 2.932 c 0.967,0 1.75,0.784 1.75,1.75 V -5.22 0 Z"
             style="fill:#e1ecf2;fill-opacity:1;fill-rule:nonzero;stroke:none"
             id="path338" /></g><g
           id="g340"
           transform="translate(306.4785,191.869)"><path
             d="M 0,0 -10.299,9.389 -20.597,0 h 4.236 V -9.378 H -4.236 V 0 Z"
             style="fill:#e1ecf2;fill-opacity:1;fill-rule:nonzero;stroke:none"
             id="path342" /></g><g
           id="g344"
           transform="translate(444.9167,289.0417)"><path
             d="m 0,0 h -126.667 c -3.313,0 -6,-2.686 -6,-6 v -42.667 c 0,-3.313 2.687,-6 6,-6 h 9.148 l -6.564,-18 23.195,18 H 0 c 3.314,0 6,2.687 6,6 V -6 C 6,-2.686 3.314,0 0,0"
             style="fill:#99c5e0;fill-opacity:1;fill-rule:nonzero;stroke:none"
             id="path346" /></g><g
           id="g348"
           transform="translate(341.2499,259.2594)"><path
             d="m 0,0 c 6.399,0 11.99,-3.403 15.105,-8.487 2.231,3.075 3.562,6.846 3.562,10.936 0,10.309 -8.358,18.667 -18.667,18.667 -10.309,0 -18.667,-8.358 -18.667,-18.667 0,-4.09 1.331,-7.861 3.562,-10.936 C -11.99,-3.403 -6.399,0 0,0"
             style="fill:#e1ecf2;fill-opacity:1;fill-rule:nonzero;stroke:none"
             id="path350" /></g><g
           id="g352"
           transform="translate(341.2499,243.0417)"><path
             d="M 0,0 C 6.22,0 11.713,3.054 15.105,7.731 11.99,12.814 6.399,16.218 0,16.218 -6.399,16.218 -11.99,12.814 -15.105,7.731 -11.713,3.054 -6.219,0 0,0"
             style="fill:#1f5078;fill-opacity:1;fill-rule:nonzero;stroke:none"
             id="path354" /></g><g
           id="g356"
           transform="translate(349.02,268.403)"><path
             d="m 0,0 c 0,-4.291 -3.479,-7.77 -7.77,-7.77 -4.291,0 -7.77,3.479 -7.77,7.77 0,4.291 3.479,7.77 7.77,7.77 C -3.479,7.77 0,4.291 0,0"
             style="fill:#1f5078;fill-opacity:1;fill-rule:nonzero;stroke:none"
             id="path358" /></g><path
           d="m 426.643,273.708 h -58.06 v 6.667 h 58.06 z"
           style="fill:#ffffff;fill-opacity:1;fill-rule:nonzero;stroke:none"
           id="path360" /><path
           d="m 442.583,262.035 h -74 v 5.34 h 74 z"
           style="fill:#e1ecf2;fill-opacity:1;fill-rule:nonzero;stroke:none"
           id="path362" /><path
           d="m 442.583,252.375 h -74 v 5.34 h 74 z"
           style="fill:#e1ecf2;fill-opacity:1;fill-rule:nonzero;stroke:none"
           id="path364" /><path
           d="m 420.097,242.715 h -51.514 v 5.34 h 51.514 z"
           style="fill:#e1ecf2;fill-opacity:1;fill-rule:nonzero;stroke:none"
           id="path366" /><g
           id="g368"
           transform="translate(161.3964,262.296)"><path
             d="M 0,0 12.283,18.079 1.14,23.16 -6.954,9.395 C -5.655,5.482 -3.256,2.35 0,0"
             style="fill:#e2885a;fill-opacity:1;fill-rule:nonzero;stroke:none"
             id="path370" /></g><g
           id="g372"
           transform="translate(159.3333,259.2594)"><path
             d="m 0,0 2.063,3.037 c -3.256,2.349 -5.655,5.481 -6.954,9.395 L -10.893,2.224 c -1.603,-2.726 -0.797,-6.229 1.836,-7.98 l 23.403,-15.568 1.619,5.722 z"
             style="fill:#f5b792;fill-opacity:1;fill-rule:nonzero;stroke:none"
             id="path374" /></g><g
           id="g376"
           transform="translate(156.7569,118.5397)"><path
             d="M 0,0 -10.848,2.467 -11.481,-0.85 -0.909,-3.255 Z"
             style="fill:#e2885a;fill-opacity:1;fill-rule:nonzero;stroke:none"
             id="path378" /></g><g
           id="g380"
           transform="translate(139.3688,95.061)"><path
             d="m 0,0 13.253,-3.014 c 1.506,-0.343 2.994,0.558 3.423,2.02 l -3.068,3.001 c -1.074,1.051 -1.49,2.603 -1.086,4.05 L 16.479,20.224 5.907,22.628 2.82,6.449 C 2.629,5.446 2.295,4.475 1.829,3.567 Z"
             style="fill:#f5b792;fill-opacity:1;fill-rule:nonzero;stroke:none"
             id="path382" /></g><g
           id="g384"
           transform="translate(136.602,89.6652)"><path
             d="M 0,0 29.619,-6.736 29.196,-4.589 0.942,1.837 Z"
             style="fill:#c13d53;fill-opacity:1;fill-rule:nonzero;stroke:none"
             id="path386" /></g><g
           id="g388"
           transform="translate(152.6221,92.047)"><path
             d="m 0,0 -13.253,3.014 -1.825,-3.559 28.253,-6.425 -0.146,0.741 c -0.522,2.65 -2.557,4.745 -5.191,5.344 v 0 C 6.606,-0.605 5.476,0.011 4.573,0.895 L 3.422,2.02 C 2.994,0.558 1.506,-0.342 0,0"
             style="fill:#db5667;fill-opacity:1;fill-rule:nonzero;stroke:none"
             id="path390" /></g><g
           id="g392"
           transform="translate(174.5833,216.375)"><path
             d="m 0,0 c -0.734,-1.56 0.652,-3.315 2.077,-4.285 1.425,-0.971 3.126,-2.237 2.889,-3.944 -0.258,-1.864 -2.739,-2.818 -2.949,-4.688 -0.217,-1.94 2.07,-3.17 2.811,-4.975 0.824,-2.009 -0.4,-4.198 -1.107,-6.251 -1.029,-2.986 -0.87,-6.324 0.291,-9.256 L 10.257,-12.5 8.333,-3 Z"
             style="fill:#256193;fill-opacity:1;fill-rule:nonzero;stroke:none"
             id="path394" /></g><g
           id="g396"
           transform="translate(197.4503,246.874)"><path
             d="m 0,0 h -26.355 l -3.903,-5.157 c -6.615,-8.739 -8.784,-19.909 -6.563,-30.642 0.795,-3.845 0.998,-7.79 0.6,-11.697 l -2.646,-26.003 c -6.177,-6.99 -10.003,-15.743 -10.938,-25.024 l -2.062,-20.476 15.5,-3.5 17.512,58.601 c -1.161,2.932 -1.32,6.27 -0.291,9.256 0.707,2.053 1.931,4.242 1.107,6.251 -0.741,1.805 -3.028,3.035 -2.811,4.975 0.261,2.325 4.034,3.234 2.678,6.238 -0.389,0.863 -1.087,1.566 -1.934,1.989 -1.606,0.803 -3.614,2.878 -2.761,4.69 l 8.333,-3 1.924,-9.5 6.239,-34.715 c -3.461,-9.089 -4.98,-18.802 -4.457,-28.514 l 1.211,-22.521 H 7.212 l 3.97,49.163 c 0.25,3.091 0.137,6.201 -0.335,9.266 z"
             style="fill:#2e6ba4;fill-opacity:1;fill-rule:nonzero;stroke:none"
             id="path398" /></g><path
           d="M 206.075,110.875 H 186.75 v 7.25 h 19.325 z"
           style="fill:#3e7fb5;fill-opacity:1;fill-rule:nonzero;stroke:none"
           id="path400" /><g
           id="g402"
           transform="translate(142.8333,121.0323)"><path
             d="M 0,0 18,-4.065 19.5,3.06 1.5,7.125 Z"
             style="fill:#3e7fb5;fill-opacity:1;fill-rule:nonzero;stroke:none"
             id="path404" /></g><g
           id="g406"
           transform="translate(201.8333,110.875)"><path
             d="m 0,0 h -11.125 l 0.118,-3.375 h 10.842 z"
             style="fill:#e2885a;fill-opacity:1;fill-rule:nonzero;stroke:none"
             id="path408" /></g><g
           id="g410"
           transform="translate(190.0847,84.125)"><path
             d="m 0,0 h 13.592 c 1.544,0 2.795,1.208 2.889,2.729 l -3.657,2.246 c -1.28,0.786 -2.03,2.208 -1.957,3.708 l 0.717,14.692 H 0.742 L 1.32,6.913 C 1.355,5.893 1.245,4.873 0.992,3.884 Z"
             style="fill:#f5b792;fill-opacity:1;fill-rule:nonzero;stroke:none"
             id="path412" /></g><g
           id="g414"
           transform="translate(188.5833,78.25)"><path
             d="M 0,0 H 30.375 L 29.486,2 H 0.511 Z"
             style="fill:#c13d53;fill-opacity:1;fill-rule:nonzero;stroke:none"
             id="path416" /></g><g
           id="g418"
           transform="translate(203.6764,84.125)"><path
             d="m 0,0 h -13.592 l -0.99,-3.875 h 28.975 l -0.307,0.69 c -1.097,2.469 -3.545,4.06 -6.247,4.06 v 0 c -1.263,0 -2.502,0.35 -3.578,1.011 L 2.889,2.729 C 2.795,1.208 1.545,0 0,0"
             style="fill:#db5667;fill-opacity:1;fill-rule:nonzero;stroke:none"
             id="path420" /></g><g
           id="g422"
           transform="translate(193.4267,224.8242)"><path
             d="M 0,0 -6.125,-3.324 -12.249,0 l 0.597,12.676 h 11.055 z"
             style="fill:#3e7fb5;fill-opacity:1;fill-rule:nonzero;stroke:none"
             id="path424" /></g><g
           id="g426"
           transform="translate(169.5367,225.9504)"><path
             d="M 0,0 -4.676,-1.785 -7,2.648 l 4.825,11.727 6.318,-2.39 z"
             style="fill:#3e7fb5;fill-opacity:1;fill-rule:nonzero;stroke:none"
             id="path428" /></g><g
           id="g430"
           transform="translate(187.7256,260.0621)"><path
             d="m 0,0 c 5.603,4.061 8.992,11.005 8.747,17.921 2.066,-1.375 4.157,-2.724 6.241,-4.081 -1.962,3.496 -3.51,7.254 -4.584,11.076 C 9.07,29.66 8.042,34.637 7.982,39.564 -0.267,39.443 -8.645,39.612 -16.895,39.49 -20.686,33.779 -24.165,24.813 -21.54,18.481 -18.634,11.468 -16.937,3.96 -16.504,-3.62 -10.82,-4.688 -4.692,-3.401 0,0"
             style="fill:#c13d53;fill-opacity:1;fill-rule:nonzero;stroke:none"
             id="path432" /></g><g
           id="g434"
           transform="translate(202.7135,273.9022)"><path
             d="m 0,0 c -2.084,1.357 -4.174,2.706 -6.241,4.081 0.245,-6.916 -3.144,-13.86 -8.747,-17.921 -4.692,-3.401 -10.82,-4.688 -16.504,-3.62 0.182,-3.187 0.146,-6.387 -0.126,-9.568 h 26.355 c 0.006,5.524 0.677,10.849 2.232,16.097 0.308,1.04 0.971,1.967 1.937,2.458 0.254,0.129 0.499,0.269 0.736,0.421 2.141,1.364 2.656,4.234 1.327,6.397 C 0.635,-1.111 0.313,-0.558 0,0"
             style="fill:#db5667;fill-opacity:1;fill-rule:nonzero;stroke:none"
             id="path436" /></g><g
           id="g438"
           transform="translate(209.0453,287.5224)"><path
             d="m 0,0 -8.09,-9.557 c 1.605,-1.558 3.238,-3.084 4.905,-4.564 1.965,3.653 3.931,7.305 5.897,10.958 C 1.808,-2.109 0.904,-1.054 0,0"
             style="fill:#e2885a;fill-opacity:1;fill-rule:nonzero;stroke:none"
             id="path440" /></g><g
           id="g442"
           transform="translate(254.6858,302.4704)"><path
             d="m 0,0 -3.936,3.573 3.801,4.247 c 0.255,0.285 0.252,0.718 -0.006,1 -0.261,0.284 -0.696,0.322 -1.003,0.087 L -12.413,0.263 c -1.885,-1.446 -3.586,-3.11 -5.07,-4.964 -5.812,-7.257 -12.263,-15.161 -17.885,-22.227 -2.521,2.939 -5.04,5.878 -7.56,8.817 -1.966,-3.653 -3.932,-7.305 -5.898,-10.958 3.643,-3.233 7.467,-6.221 11.641,-8.656 2.28,-1.331 5.211,-0.588 6.605,1.654 l 18.061,29.06 h 0.858 c 2.302,0 4.535,0.792 6.323,2.242 l 0.319,0.258 c 0.604,-1.209 2.231,-1.441 3.15,-0.45 l 1.991,2.15 C 0.87,-2.003 0.816,-0.74 0,0"
             style="fill:#f5b792;fill-opacity:1;fill-rule:nonzero;stroke:none"
             id="path444" /></g><g
           id="g446"
           transform="translate(205.3358,293.4138)"><path
             d="m 0,0 c -1.676,1.954 -3.381,3.935 -5.53,5.351 -2.122,1.398 -4.771,2.198 -7.235,1.592 -1.82,-0.447 -3.193,-1.952 -3.599,-3.782 -1.441,-6.502 2.508,-10.579 6.266,-14.352 1.96,-1.968 3.929,-3.941 5.929,-5.883 L 5.175,-6.035 C 3.45,-4.023 1.725,-2.012 0,0"
             style="fill:#db5667;fill-opacity:1;fill-rule:nonzero;stroke:none"
             id="path448" /></g><g
           id="g450"
           transform="translate(196.2925,307.7146)"><path
             d="m 0,0 c -2.093,-2.803 -5.959,-3.966 -9.392,-3.289 -3.432,0.677 -6.401,2.981 -8.404,5.85 -2.865,4.105 -3.885,9.447 -2.735,14.319 1.151,4.871 4.453,9.193 8.852,11.582 2.803,1.523 6.378,2.227 9.125,0.606 C 0.787,27.096 1.559,22.669 1.823,18.799 2.038,15.65 2.144,12.493 2.142,9.336 2.139,6.085 1.945,2.605 0,0"
             style="fill:#f5b792;fill-opacity:1;fill-rule:nonzero;stroke:none"
             id="path452" /></g><g
           id="g454"
           transform="translate(174.0117,268.3844)"><path
             d="m 0,0 c 5.964,0.158 11.738,3.602 14.712,8.774 2.618,4.554 3.056,10.017 3.065,15.269 0.009,5.253 -0.342,10.587 0.914,15.687 1.055,4.285 3.216,8.309 4.966,12.389 0.307,2.197 0.52,4.4 0.485,6.621 -0.11,6.862 -3.305,14.417 -9.799,16.635 C 8.047,77.526 0.932,73.684 -2.7,68.11 -6.331,62.536 -7.238,55.66 -7.771,49.028 -8.304,42.397 -8.594,35.579 -11.235,29.474 c -1.811,-4.186 -4.677,-7.897 -6.082,-12.237 -0.195,-0.601 -0.348,-1.212 -0.477,-1.827 0.311,-2.635 1.194,-5.201 2.638,-7.429 C -11.912,2.974 -5.964,-0.158 0,0"
             style="fill:#ebb462;fill-opacity:1;fill-rule:nonzero;stroke:none"
             id="path456" /></g><g
           id="g458"
           transform="translate(195.5578,306.7278)"><path
             d="M 0,0 C 0.375,4.626 1.469,9.186 2.111,13.775 0.361,9.696 -1.8,5.671 -2.855,1.387 -4.111,-3.713 -3.76,-9.047 -3.769,-14.3 c -0.009,-5.252 -0.447,-10.716 -3.065,-15.269 -2.974,-5.173 -8.748,-8.616 -14.712,-8.774 -5.964,-0.159 -11.912,2.973 -15.157,7.98 -1.443,2.229 -2.326,4.794 -2.637,7.429 -1.732,-8.311 2.495,-17.649 10.068,-21.594 8.133,-4.238 19.159,-1.755 24.691,5.56 4.022,5.318 5.073,12.317 5.043,18.985 C 0.433,-13.316 -0.54,-6.646 0,0"
             style="fill:#e09e46;fill-opacity:1;fill-rule:nonzero;stroke:none"
             id="path460" /></g><g
           id="g462"
           transform="translate(435.9336,78.25)"><path
             d="m 0,0 h -380.701 c -1.254,0 -2.27,-1.017 -2.27,-2.271 0,-1.254 1.016,-2.271 2.27,-2.271 h 93.513 c 1.254,0 2.271,-1.016 2.271,-2.27 0,-1.255 -1.017,-2.271 -2.271,-2.271 h -28.785 c -1.254,0 -2.27,-1.017 -2.27,-2.271 0,-1.254 1.016,-2.271 2.27,-2.271 h 219.277 c 1.254,0 2.271,1.017 2.271,2.271 0,1.254 -1.017,2.271 -2.271,2.271 h -52.83 c -1.254,0 -2.271,1.016 -2.271,2.271 0,1.254 1.017,2.27 2.271,2.27 L 0,-4.542 c 1.254,0 2.271,1.017 2.271,2.271 C 2.271,-1.017 1.254,0 0,0"
             style="fill:#b0d6ed;fill-opacity:1;fill-rule:nonzero;stroke:none"
             id="path464" /></g><g
           id="g466"
           transform="translate(369.0232,69.1667)"><path
             d="m 0,0 h -14.836 c -1.254,0 -2.271,-1.017 -2.271,-2.271 0,-1.254 1.017,-2.271 2.271,-2.271 H 0 c 1.254,0 2.271,1.017 2.271,2.271 C 2.271,-1.017 1.254,0 0,0"
             style="fill:#b0d6ed;fill-opacity:1;fill-rule:nonzero;stroke:none"
             id="path468" /></g></g></g><g
       id="g470"><g
         id="g472"
         clip-path="url(#clipPath476)"><g
           id="g478"
           transform="translate(259.3921,27.3646)"><path
             d="m 0,0 c -0.402,-0.412 -0.747,-0.865 -1.03,-1.351 l -0.433,0.224 c -0.062,0.277 -0.324,0.467 -0.612,0.434 -0.308,-0.036 -0.528,-0.315 -0.492,-0.623 0.037,-0.308 0.315,-0.528 0.623,-0.491 0.061,0.007 0.118,0.024 0.17,0.048 l 0.42,-0.218 c -0.233,-0.514 -0.402,-1.058 -0.501,-1.621 l 0.694,-0.122 c 0.214,1.214 0.79,2.33 1.665,3.228 z"
             style="fill:#1d262d;fill-opacity:1;fill-rule:nonzero;stroke:none"
             id="path480" /></g><g
           id="g482"
           transform="translate(264.4933,29.5044)"><path
             d="m 0,0 c -0.159,0 -0.317,-0.006 -0.474,-0.016 l -0.068,0.582 c 0.174,0.139 0.275,0.362 0.247,0.599 C -0.338,1.531 -0.669,1.792 -1.034,1.749 -1.4,1.706 -1.661,1.375 -1.618,1.01 -1.59,0.774 -1.442,0.581 -1.242,0.486 l 0.068,-0.58 c -0.663,-0.108 -1.304,-0.309 -1.914,-0.601 l 0.304,-0.635 c 0.868,0.415 1.805,0.625 2.784,0.625 0.461,0 0.923,-0.049 1.371,-0.146 L 1.52,-0.162 C 1.023,-0.055 0.512,0 0,0"
             style="fill:#1d262d;fill-opacity:1;fill-rule:nonzero;stroke:none"
             id="path484" /></g><g
           id="g486"
           transform="translate(270.6305,27.1367)"><path
             d="M 0,0 C 0.307,0.038 0.526,0.317 0.488,0.625 0.451,0.932 0.171,1.151 -0.137,1.113 -0.424,1.078 -0.634,0.831 -0.629,0.548 L -1.016,0.21 c -0.388,0.4 -0.826,0.755 -1.308,1.059 L -2.7,0.673 c 1.054,-0.664 1.878,-1.605 2.383,-2.719 l 0.642,0.29 c -0.233,0.515 -0.528,0.997 -0.876,1.436 l 0.374,0.327 C -0.12,-0.005 -0.061,-0.008 0,0"
             style="fill:#1d262d;fill-opacity:1;fill-rule:nonzero;stroke:none"
             id="path488" /></g><g
           id="g490"
           transform="translate(263.9842,20.0153)"><path
             d="m 0,0 c -0.359,-0.022 -0.72,-0.032 -1.076,-0.032 -0.818,0 -1.61,0.056 -2.303,0.166 -0.363,0.058 -0.787,0.144 -1.181,0.272 0.973,-1.73 2.853,-2.905 5.009,-2.905 2.654,0 4.891,1.781 5.53,4.186 C 5.345,1.27 4.58,0.92 3.694,0.644 2.598,0.302 1.319,0.079 0,0"
             style="fill:#1d262d;fill-opacity:1;fill-rule:nonzero;stroke:none"
             id="path492" /></g><g
           id="g494"
           transform="translate(266.8896,22.8836)"><path
             d="m 0,0 c -0.697,0 -1.264,0.567 -1.264,1.264 0,0.698 0.567,1.265 1.264,1.265 0.697,0 1.265,-0.567 1.265,-1.265 C 1.265,0.567 0.697,0 0,0 m -4.404,-0.844 c -0.948,0 -1.719,0.771 -1.719,1.719 0,0.948 0.771,1.72 1.719,1.72 0.948,0 1.72,-0.772 1.72,-1.72 0,-0.948 -0.772,-1.719 -1.72,-1.719 m 2.008,6.056 c -3.116,0 -5.652,-2.479 -5.652,-5.525 0,-0.396 0.043,-0.79 0.128,-1.173 0.626,-0.448 2.515,-0.827 4.971,-0.679 2.676,0.161 4.923,0.89 6.202,2.006 C 3.248,0.023 3.234,0.204 3.211,0.382 2.857,3.135 0.447,5.212 -2.396,5.212"
             style="fill:#1d262d;fill-opacity:1;fill-rule:nonzero;stroke:none"
             id="path496" /></g><g
           id="g498"
           transform="translate(279.3691,26.3595)"><path
             d="M 0,0 C -0.274,0.108 -0.749,0.287 -1.285,0.221 -1.797,0.157 -2.069,-0.096 -2.069,-0.715 V -1.52 h 2.071 v -1.596 h -2.071 v -5.071 h -1.796 v 5.071 H -5.11 v 1.596 h 1.245 v 0.826 c 0,1.561 0.832,2.586 2.387,2.586 0.598,0 1.076,-0.113 1.478,-0.286 z"
             style="fill:#1d262d;fill-opacity:1;fill-rule:nonzero;stroke:none"
             id="path500" /></g><g
           id="g502"
           transform="translate(283.7404,23.2623)"><path
             d="m 0,0 c -0.164,0.028 -0.332,0.043 -0.489,0.043 -0.833,0 -1.403,-0.509 -1.403,-1.5 v -3.632 h -1.796 v 6.666 h 1.74 V 0.848 c 0.42,0.626 1.06,0.908 1.879,0.908 0.385,0 0.788,-0.119 1.017,-0.313 z"
             style="fill:#1d262d;fill-opacity:1;fill-rule:nonzero;stroke:none"
             id="path504" /></g><g
           id="g506"
           transform="translate(286.1135,22.1357)"><path
             d="M 0,0 H 2.951 C 2.786,0.853 2.27,1.335 1.5,1.335 0.654,1.335 0.158,0.826 0,0 m 4.754,-0.619 c 0,-0.207 -0.014,-0.454 -0.034,-0.606 h -4.727 c 0.193,-0.963 0.867,-1.382 1.713,-1.382 0.578,0 1.204,0.233 1.686,0.639 l 1.052,-1.155 c -0.756,-0.695 -1.72,-1.012 -2.841,-1.012 -2.043,0 -3.461,1.39 -3.461,3.488 0,2.099 1.376,3.53 3.372,3.53 1.919,0 3.233,-1.424 3.24,-3.502"
             style="fill:#1d262d;fill-opacity:1;fill-rule:nonzero;stroke:none"
             id="path508" /></g><g
           id="g510"
           transform="translate(293.2275,22.1357)"><path
             d="M 0,0 H 2.952 C 2.786,0.853 2.27,1.335 1.5,1.335 0.654,1.335 0.158,0.826 0,0 m 4.754,-0.619 c 0,-0.207 -0.014,-0.454 -0.034,-0.606 h -4.727 c 0.193,-0.963 0.867,-1.382 1.713,-1.382 0.578,0 1.204,0.233 1.686,0.639 l 1.053,-1.155 c -0.757,-0.695 -1.72,-1.012 -2.842,-1.012 -2.043,0 -3.461,1.39 -3.461,3.488 0,2.099 1.377,3.53 3.372,3.53 1.919,0 3.233,-1.424 3.24,-3.502"
             style="fill:#1d262d;fill-opacity:1;fill-rule:nonzero;stroke:none"
             id="path512" /></g><g
           id="g514"
           transform="translate(300.4623,21.5095)"><path
             d="m 0,0 c 0,-1.053 0.695,-1.837 1.713,-1.837 1.06,0 1.72,0.819 1.72,1.837 0,1.018 -0.66,1.837 -1.72,1.837 C 0.695,1.837 0,1.053 0,0 m 5.277,0 c 0,-2.002 -1.39,-3.509 -3.227,-3.509 -0.894,0 -1.527,0.351 -1.96,0.867 V -6.089 H -1.699 V 3.33 H 0.055 V 2.594 C 0.489,3.137 1.128,3.509 2.043,3.509 3.887,3.509 5.277,2.002 5.277,0"
             style="fill:#1d262d;fill-opacity:1;fill-rule:nonzero;stroke:none"
             id="path516" /></g><path
           d="m 308.383,18.173 h -1.796 v 6.667 h 1.796 z m 0.241,8.847 c 0,-0.646 -0.502,-1.142 -1.149,-1.142 -0.647,0 -1.142,0.496 -1.142,1.142 0,0.647 0.495,1.156 1.142,1.156 0.647,0 1.149,-0.509 1.149,-1.156"
           style="fill:#1d262d;fill-opacity:1;fill-rule:nonzero;stroke:none"
           id="path518" /><g
           id="g520"
           transform="translate(311.3798,22.4658)"><path
             d="M 0,0 2.511,2.374 H 4.713 L 1.479,-0.764 4.733,-4.293 H 2.525 L 0,-1.596 v -2.697 h -1.796 v 9.907 l 1.796,0 z"
             style="fill:#1d262d;fill-opacity:1;fill-rule:nonzero;stroke:none"
             id="path522" /></g><g
           id="g524"
           transform="translate(189.0334,20.0169)"><path
             d="m 0,0 v 2.982 c -0.368,0.572 -1.157,1.062 -1.974,1.062 -1.321,0 -2.111,-1.089 -2.111,-2.547 0,-1.456 0.79,-2.532 2.111,-2.532 0.817,0 1.606,0.463 1.974,1.035 m 0,-1.784 v 0.981 c -0.49,-0.668 -1.293,-1.144 -2.219,-1.144 -1.716,0 -2.928,1.307 -2.928,3.444 0,2.098 1.198,3.459 2.928,3.459 0.885,0 1.688,-0.436 2.219,-1.157 v 3.499 h 1.021 v -9.082 z"
             style="fill:#1d262d;fill-opacity:1;fill-rule:nonzero;stroke:none"
             id="path526" /></g><g
           id="g528"
           transform="translate(194.6024,24.1287)"><path
             d="M 0,0 C -1.403,0 -2.097,-1.185 -2.151,-2.192 H 2.165 C 2.151,-1.212 1.498,0 0,0 m -3.227,-2.601 c 0,1.907 1.361,3.445 3.24,3.445 1.988,0 3.159,-1.552 3.159,-3.526 v -0.259 h -5.323 c 0.081,-1.239 0.953,-2.274 2.369,-2.274 0.749,0 1.511,0.3 2.028,0.831 L 2.737,-5.051 C 2.083,-5.705 1.198,-6.059 0.122,-6.059 c -1.947,0 -3.349,1.402 -3.349,3.458"
             style="fill:#1d262d;fill-opacity:1;fill-rule:nonzero;stroke:none"
             id="path530" /></g><g
           id="g532"
           transform="translate(198.5098,19.1047)"><path
             d="m 0,0 0.531,0.735 c 0.436,-0.504 1.266,-0.939 2.165,-0.939 1.007,0 1.552,0.476 1.552,1.13 0,1.593 -4.071,0.612 -4.071,3.05 0,1.021 0.885,1.892 2.451,1.892 1.116,0 1.906,-0.422 2.437,-0.953 L 4.588,4.207 C 4.194,4.684 3.472,5.038 2.628,5.038 1.729,5.038 1.171,4.588 1.171,4.003 1.171,2.56 5.242,3.513 5.242,0.953 5.242,-0.15 4.357,-1.035 2.655,-1.035 1.579,-1.035 0.667,-0.708 0,0"
             style="fill:#1d262d;fill-opacity:1;fill-rule:nonzero;stroke:none"
             id="path534" /></g><path
           d="m 205.072,24.81 h 1.021 v -6.576 h -1.021 z m -0.176,1.62 c 0,0.381 0.313,0.694 0.68,0.694 0.382,0 0.695,-0.313 0.695,-0.694 0,-0.381 -0.313,-0.681 -0.695,-0.681 -0.367,0 -0.68,0.3 -0.68,0.681"
           style="fill:#1d262d;fill-opacity:1;fill-rule:nonzero;stroke:none"
           id="path536" /><g
           id="g538"
           transform="translate(212.5474,20.1257)"><path
             d="m 0,0 v 2.873 c -0.354,0.572 -1.144,1.062 -1.961,1.062 -1.32,0 -2.11,-1.048 -2.11,-2.505 0,-1.444 0.79,-2.506 2.11,-2.506 0.817,0 1.607,0.504 1.961,1.076 m -4.765,-3.581 0.517,0.763 c 0.544,-0.654 1.198,-0.899 2.138,-0.899 1.089,0 2.11,0.531 2.11,1.974 v 0.94 c -0.477,-0.667 -1.28,-1.171 -2.206,-1.171 -1.715,0 -2.927,1.28 -2.927,3.404 0,2.11 1.198,3.417 2.927,3.417 0.885,0 1.675,-0.435 2.206,-1.157 v 0.994 h 1.021 v -6.386 c 0,-2.179 -1.525,-2.859 -3.131,-2.859 -1.117,0 -1.88,0.218 -2.655,0.98"
             style="fill:#1d262d;fill-opacity:1;fill-rule:nonzero;stroke:none"
             id="path540" /></g><g
           id="g542"
           transform="translate(219.7092,18.2332)"><path
             d="m 0,0 v 4.303 c 0,1.157 -0.585,1.525 -1.471,1.525 -0.803,0 -1.565,-0.491 -1.947,-1.022 V 0 h -1.021 v 6.576 h 1.021 V 5.623 c 0.463,0.545 1.362,1.117 2.342,1.117 1.375,0 2.097,-0.695 2.097,-2.124 V 0 Z"
             style="fill:#1d262d;fill-opacity:1;fill-rule:nonzero;stroke:none"
             id="path544" /></g><g
           id="g546"
           transform="translate(225.278,24.1287)"><path
             d="M 0,0 C -1.403,0 -2.097,-1.185 -2.151,-2.192 H 2.165 C 2.151,-1.212 1.498,0 0,0 m -3.227,-2.601 c 0,1.907 1.361,3.445 3.241,3.445 1.987,0 3.159,-1.552 3.159,-3.526 v -0.259 h -5.324 c 0.081,-1.239 0.953,-2.274 2.369,-2.274 0.749,0 1.511,0.3 2.029,0.831 l 0.49,-0.667 C 2.083,-5.705 1.198,-6.059 0.122,-6.059 c -1.947,0 -3.349,1.402 -3.349,3.458"
             style="fill:#1d262d;fill-opacity:1;fill-rule:nonzero;stroke:none"
             id="path548" /></g><g
           id="g550"
           transform="translate(234.5231,20.0169)"><path
             d="m 0,0 v 2.982 c -0.368,0.572 -1.157,1.062 -1.974,1.062 -1.321,0 -2.111,-1.089 -2.111,-2.547 0,-1.456 0.79,-2.532 2.111,-2.532 0.817,0 1.606,0.463 1.974,1.035 m 0,-1.784 v 0.981 c -0.49,-0.668 -1.293,-1.144 -2.22,-1.144 -1.715,0 -2.927,1.307 -2.927,3.444 0,2.098 1.198,3.459 2.927,3.459 0.885,0 1.689,-0.436 2.22,-1.157 v 3.499 h 1.021 v -9.082 z"
             style="fill:#1d262d;fill-opacity:1;fill-rule:nonzero;stroke:none"
             id="path552" /></g><g
           id="g554"
           transform="translate(243.4,18.9821)"><path
             d="m 0,0 c 1.335,0 2.124,1.076 2.124,2.532 0,1.457 -0.789,2.547 -2.124,2.547 -0.803,0 -1.607,-0.49 -1.961,-1.062 V 1.035 C -1.607,0.463 -0.803,0 0,0 m -2.982,-0.749 v 9.082 h 1.021 v -3.5 c 0.532,0.722 1.321,1.158 2.22,1.158 1.715,0 2.927,-1.362 2.927,-3.459 0,-2.137 -1.212,-3.444 -2.927,-3.444 -0.926,0 -1.729,0.476 -2.22,1.144 v -0.981 z"
             style="fill:#1d262d;fill-opacity:1;fill-rule:nonzero;stroke:none"
             id="path556" /></g><g
           id="g558"
           transform="translate(247.7026,16.5856)"><path
             d="m 0,0 c 0.15,-0.068 0.395,-0.109 0.558,-0.109 0.45,0 0.749,0.15 0.981,0.694 L 1.975,1.579 -0.776,8.224 H 0.327 L 2.519,2.832 4.698,8.224 H 5.814 L 2.519,0.313 C 2.124,-0.64 1.457,-1.008 0.585,-1.021 c -0.217,0 -0.558,0.041 -0.748,0.095 z"
             style="fill:#1d262d;fill-opacity:1;fill-rule:nonzero;stroke:none"
             id="path560" /></g></g></g></g></svg>
